<svg width="31" height="36" viewBox="0 0 31 36" fill="none" xmlns="http://www.w3.org/2000/svg">
<g clip-path="url(#clip0_312_1522)">
<path d="M6.11886 25.3954C5.67879 25.3954 5.26616 25.1967 4.9566 24.8362L0.481156 19.637C0.332124 19.4682 0.207724 19.2518 0.1244 19.0153C0.0425812 18.7848 0.000322901 18.538 0 18.2887C0 18.0446 0.040664 17.8039 0.119859 17.5731C0.211439 17.3185 0.332124 17.1087 0.491408 16.9276L4.95784 11.7403C5.57902 11.0208 6.65589 11.0203 7.27872 11.7369C7.91916 12.4835 7.91998 13.694 7.28285 14.4373L5.6086 16.3811H20.9017C21.8078 16.3811 22.5447 17.2369 22.5447 18.2891C22.5447 19.3409 21.8077 20.1962 20.9017 20.1962H5.60853L7.28071 22.1376C7.91792 22.8827 7.91833 24.0928 7.28278 24.8342C6.96957 25.1971 6.55695 25.3954 6.11886 25.3954Z" fill="#EC8C08"/>
<path d="M31.0001 30.9965H8.61719V20.673H9.43824V30.043H30.179V5.95698H9.43824V15.9044H8.61719V5.00342H31.0001V30.9965Z" fill="#EC8C08"/>
</g>
<defs>
<clipPath id="clip0_312_1522">
<rect width="31" height="36" fill="white"/>
</clipPath>
</defs>
</svg>
