<svg width="33" height="33" viewBox="0 0 33 33" fill="none" xmlns="http://www.w3.org/2000/svg">
<g clip-path="url(#clip0_312_1492)">
<path d="M12.4023 15.9991V15.1188C12.4023 14.8518 12.1859 14.6354 11.9189 14.6354C11.652 14.6354 11.4355 14.8518 11.4355 15.1188V15.9991C11.4355 16.2662 11.652 16.4825 11.9189 16.4825C12.1859 16.4825 12.4023 16.2662 12.4023 15.9991Z" fill="#EC8C08"/>
<path d="M21.082 14.6354C20.8151 14.6354 20.5986 14.8518 20.5986 15.1188V15.9991C20.5986 16.2662 20.8151 16.4825 21.082 16.4825C21.3491 16.4825 21.5654 16.2662 21.5654 15.9991V15.1188C21.5654 14.8519 21.3491 14.6354 21.082 14.6354Z" fill="#EC8C08"/>
<path d="M17.4373 14.9952C17.0861 15.0202 16.7663 15.1354 16.5007 15.3283C16.235 15.1354 15.9152 15.0202 15.564 14.9952C14.8697 14.9456 14.129 15.2571 13.5832 15.8286C12.4696 16.9965 11.861 17.8614 12.2668 18.5638C12.672 19.2663 13.7254 19.1718 15.2942 18.7916C15.7583 18.6786 16.1754 18.4576 16.5007 18.1602C16.8259 18.4576 17.2432 18.6786 17.7076 18.7917C18.4428 18.97 19.0648 19.0854 19.56 19.0853C20.121 19.0853 20.5192 18.9371 20.7344 18.5641C21.1404 17.8614 20.5317 16.9965 19.4179 15.8284C18.8723 15.2571 18.1316 14.9447 17.4373 14.9952ZM17.9358 17.8522C17.4941 17.7446 17.112 17.4855 16.9139 17.159C16.8263 17.0146 16.6696 16.9264 16.5007 16.9264C16.3317 16.9264 16.175 17.0146 16.0874 17.159C15.8892 17.4855 15.5072 17.7446 15.0659 17.8521C13.6222 18.2021 13.2202 18.1277 13.1124 18.0757C13.1212 17.9563 13.2576 17.5709 14.2825 16.4961C14.6313 16.1309 15.0847 15.9297 15.4951 15.9595C15.6766 15.9724 15.9302 16.0399 16.1072 16.2879C16.1979 16.415 16.3444 16.4904 16.5006 16.4904C16.6568 16.4904 16.8033 16.415 16.894 16.2879C17.0711 16.0399 17.3246 15.9724 17.5061 15.9595C17.9169 15.9303 18.3699 16.1309 18.7184 16.4958C19.7435 17.5708 19.88 17.9563 19.8888 18.0757C19.7811 18.1276 19.3791 18.2021 17.9358 17.8522Z" fill="#EC8C08"/>
<path d="M27.415 10.8106C28.3841 5.16327 24.0262 0 18.306 0C15.5123 0 12.8673 1.26128 11.1108 3.43329C9.1099 3.2331 7.19022 4.1415 6.0659 5.74696C4.98361 7.29236 4.80875 9.22498 5.42472 10.8286C3.86206 11.0446 2.72266 12.3784 2.72266 13.9283C2.72266 15.5604 3.99561 16.9589 5.66655 17.0528C5.95227 18.534 6.43773 19.9356 7.1132 21.2241C7.23715 21.4606 7.52931 21.5519 7.76579 21.4278C8.00221 21.3038 8.09341 21.0117 7.96946 20.7752C6.41221 17.8047 5.96265 14.1233 6.6494 11.4202C6.68188 11.2924 6.66029 11.1577 6.59158 11.0468C5.74016 9.47738 5.90703 7.65916 6.85784 6.30165C7.84436 4.89289 9.54669 4.16425 11.249 4.42496C11.4242 4.45203 11.6 4.38069 11.7072 4.23953C13.2738 2.17697 15.7155 0.966797 18.306 0.966797C23.4989 0.966797 27.4135 5.72795 26.4303 10.8178C25.3749 10.8178 25.1993 10.8178 24.0425 10.8178C20.2518 10.8178 16.6886 9.34209 14.009 6.66252C13.9184 6.5719 13.7954 6.52098 13.6672 6.52098C12.6649 6.52098 11.7226 6.91137 11.0138 7.6201L8.93761 9.69639C8.49295 10.1397 8.17739 10.6435 7.99976 11.1938C7.13969 13.8585 7.55194 16.9169 9.39059 19.3315C10.5508 20.855 12.2 21.9843 14.0342 22.5115C14.7903 22.7289 15.6007 22.3421 15.9181 21.6106C16.0726 21.2543 16.3012 21.024 16.5003 21.024C16.6994 21.024 16.9279 21.2542 17.0825 21.6105C17.3997 22.3416 18.21 22.7289 18.9673 22.5112C20.8012 21.9839 22.45 20.8547 23.61 19.3315C25.2517 17.1757 25.814 14.3981 25.1668 11.7846H26.4357C26.7682 13.3446 26.716 14.9128 26.454 16.4864C25.5092 22.1594 21.4399 26.5272 16.5001 26.5272C13.4308 26.5272 10.7566 24.8392 8.94999 22.357C8.79285 22.1411 8.49057 22.0935 8.27465 22.2507C8.0588 22.4078 8.01116 22.7101 8.1683 22.926C8.84918 23.8615 9.62707 24.6725 10.4859 25.3449C8.37668 27.1183 7.13434 29.7529 7.13434 32.5167C7.13434 32.7837 7.35078 33.0001 7.61774 33.0001H25.3826C25.6497 33.0001 25.866 32.7837 25.866 32.5167C25.866 31.6392 25.7436 30.7693 25.5021 29.9311C25.4282 29.6745 25.1601 29.5264 24.9038 29.6004C24.6473 29.6742 24.4992 29.9422 24.5731 30.1987C24.7451 30.7958 24.8497 31.4108 24.8854 32.0333H22.1703V29.814C22.1703 29.547 21.9539 29.3306 21.6869 29.3306C21.4199 29.3306 21.2035 29.547 21.2035 29.814V32.0332H19.9712V26.8211C20.5658 26.5834 21.1448 26.2838 21.6993 25.9264C22.5881 26.6303 23.3383 27.5177 23.8798 28.5112C24.0077 28.7458 24.3015 28.832 24.5356 28.7044C24.77 28.5766 24.8565 28.283 24.7288 28.0486C24.1698 27.0228 23.4111 26.0988 22.5152 25.3446C25.0791 23.3359 26.7124 20.2639 27.3338 17.0527C29.008 16.9586 30.2779 15.5573 30.2779 13.9283C30.2779 12.3188 29.0507 10.9512 27.415 10.8106ZM5.50619 16.0641C4.45947 15.8983 3.68945 14.9837 3.68945 13.9283C3.68945 12.8524 4.48429 11.9235 5.57915 11.7836C5.30478 13.2037 5.31406 14.6187 5.50619 16.0641ZM22.8409 18.7457C21.8061 20.1045 20.3356 21.1119 18.7002 21.5821C18.4034 21.6671 18.096 21.5175 17.9694 21.2257C17.6519 20.494 17.1027 20.0573 16.5003 20.0573C15.8978 20.0573 15.3486 20.4941 15.0311 21.2258C14.9046 21.5175 14.5974 21.6673 14.3011 21.5823C12.6655 21.1122 11.1947 20.1049 10.1596 18.7457C8.51867 16.5907 8.15438 13.8621 8.9197 11.4907C9.0497 11.0881 9.28527 10.7148 9.62004 10.381L9.62507 10.376L11.6973 8.30375C12.1781 7.823 12.8034 7.5396 13.4754 7.49422C16.2093 10.1544 19.9259 11.7845 24.1681 11.7845C24.8388 14.1818 24.3531 16.7599 22.8409 18.7457ZM13.031 32.0332H11.7959V29.814C11.7959 29.5469 11.5795 29.3306 11.3125 29.3306C11.0456 29.3306 10.8291 29.5469 10.8291 29.814V32.0332H8.11538C8.2548 29.6502 9.41908 27.4159 11.3023 25.9265C11.8568 26.2837 12.4359 26.5832 13.031 26.8209V32.0332ZM19.0045 32.0332H13.9978V27.1483C14.8161 27.3776 15.655 27.494 16.5002 27.494C17.3469 27.494 18.1864 27.3776 19.0045 27.1486V32.0332ZM27.4946 16.0641C27.687 14.6303 27.6986 13.2135 27.4212 11.7816C28.4921 11.9135 29.3111 12.8359 29.3111 13.9283C29.3111 14.9835 28.5414 15.8983 27.4946 16.0641Z" fill="#EC8C08"/>
<path d="M20.5713 28.5548C20.3043 28.5548 20.0879 28.7712 20.0879 29.0382C20.0879 29.3052 20.3043 29.5216 20.5713 29.5216C20.8383 29.5216 21.0547 29.3052 21.0547 29.0382C21.0547 28.7712 20.8383 28.5548 20.5713 28.5548Z" fill="#EC8C08"/>
<path d="M20.5713 30.9327C20.3043 30.9327 20.0879 31.1492 20.0879 31.4161C20.0879 31.6831 20.3043 31.8995 20.5713 31.8995C20.8383 31.8995 21.0547 31.6832 21.0547 31.4161C21.0547 31.1491 20.8383 30.9327 20.5713 30.9327Z" fill="#EC8C08"/>
</g>
<defs>
<clipPath id="clip0_312_1492">
<rect width="33" height="33" fill="white"/>
</clipPath>
</defs>
</svg>
