<svg width="32" height="32" viewBox="0 0 32 32" fill="none" xmlns="http://www.w3.org/2000/svg">
<path d="M29.5 17H18.5C18.1023 17.0004 17.721 17.1586 17.4398 17.4398C17.1586 17.721 17.0004 18.1023 17 18.5V29.5C17.0004 29.8977 17.1586 30.279 17.4398 30.5602C17.721 30.8414 18.1023 30.9996 18.5 31H29.5C29.8977 30.9996 30.279 30.8414 30.5602 30.5602C30.8414 30.279 30.9996 29.8977 31 29.5V18.5C30.9996 18.1023 30.8414 17.721 30.5602 17.4398C30.279 17.1586 29.8977 17.0004 29.5 17ZM30 29.5C30 29.6326 29.9473 29.7598 29.8536 29.8536C29.7598 29.9473 29.6326 30 29.5 30H18.5C18.3674 30 18.2402 29.9473 18.1464 29.8536C18.0527 29.7598 18 29.6326 18 29.5V18.5C18 18.3674 18.0527 18.2402 18.1464 18.1464C18.2402 18.0527 18.3674 18 18.5 18H29.5C29.6326 18 29.7598 18.0527 29.8536 18.1464C29.9473 18.2402 30 18.3674 30 18.5V29.5ZM13.5 17H2.5C2.1023 17.0004 1.721 17.1586 1.43978 17.4398C1.15856 17.721 1.0004 18.1023 1 18.5V29.5C1.0004 29.8977 1.15856 30.279 1.43978 30.5602C1.721 30.8414 2.1023 30.9996 2.5 31H13.5C13.8977 30.9996 14.279 30.8414 14.5602 30.5602C14.8414 30.279 14.9996 29.8977 15 29.5V18.5C14.9996 18.1023 14.8414 17.721 14.5602 17.4398C14.279 17.1586 13.8977 17.0004 13.5 17ZM14 29.5C14 29.6326 13.9473 29.7598 13.8536 29.8536C13.7598 29.9473 13.6326 30 13.5 30H2.5C2.36739 30 2.24021 29.9473 2.14645 29.8536C2.05268 29.7598 2 29.6326 2 29.5V18.5C2 18.3674 2.05268 18.2402 2.14645 18.1464C2.24021 18.0527 2.36739 18 2.5 18H13.5C13.6326 18 13.7598 18.0527 13.8536 18.1464C13.9473 18.2402 14 18.3674 14 18.5V29.5ZM29.5 1H18.5C18.1023 1.0004 17.721 1.15856 17.4398 1.43978C17.1586 1.721 17.0004 2.1023 17 2.5V13.5C17.0004 13.8977 17.1586 14.279 17.4398 14.5602C17.721 14.8414 18.1023 14.9996 18.5 15H29.5C29.8977 14.9996 30.279 14.8414 30.5602 14.5602C30.8414 14.279 30.9996 13.8977 31 13.5V2.5C30.9996 2.1023 30.8414 1.721 30.5602 1.43978C30.279 1.15856 29.8977 1.0004 29.5 1ZM30 13.5C30 13.6326 29.9473 13.7598 29.8536 13.8536C29.7598 13.9473 29.6326 14 29.5 14H18.5C18.3674 14 18.2402 13.9473 18.1464 13.8536C18.0527 13.7598 18 13.6326 18 13.5V2.5C18 2.36739 18.0527 2.24021 18.1464 2.14645C18.2402 2.05268 18.3674 2 18.5 2H29.5C29.6326 2 29.7598 2.05268 29.8536 2.14645C29.9473 2.24021 30 2.36739 30 2.5V13.5ZM13.5 1H2.5C2.1023 1.0004 1.721 1.15856 1.43978 1.43978C1.15856 1.721 1.0004 2.1023 1 2.5V13.5C1.0004 13.8977 1.15856 14.279 1.43978 14.5602C1.721 14.8414 2.1023 14.9996 2.5 15H13.5C13.8977 14.9996 14.279 14.8414 14.5602 14.5602C14.8414 14.279 14.9996 13.8977 15 13.5V2.5C14.9996 2.1023 14.8414 1.721 14.5602 1.43978C14.279 1.15856 13.8977 1.0004 13.5 1ZM14 13.5C14 13.6326 13.9473 13.7598 13.8536 13.8536C13.7598 13.9473 13.6326 14 13.5 14H2.5C2.36739 14 2.24021 13.9473 2.14645 13.8536C2.05268 13.7598 2 13.6326 2 13.5V2.5C2 2.36739 2.05268 2.24021 2.14645 2.14645C2.24021 2.05268 2.36739 2 2.5 2H13.5C13.6326 2 13.7598 2.05268 13.8536 2.14645C13.9473 2.24021 14 2.36739 14 2.5V13.5Z" fill="#EC8C08"/>
</svg>
