<svg width="38" height="38" viewBox="0 0 38 38" fill="none" xmlns="http://www.w3.org/2000/svg">
<path fill-rule="evenodd" clip-rule="evenodd" d="M9.12021 6.84001C8.07083 6.84001 7.2202 7.69064 7.2202 8.74001C7.2202 9.78932 8.07083 10.64 9.12021 10.64C10.1695 10.64 11.0202 9.78932 11.0202 8.74001C11.0202 7.69064 10.1695 6.84001 9.12021 6.84001ZM5.7002 8.74001C5.7002 6.85119 7.23138 5.32001 9.12021 5.32001C11.009 5.32001 12.5402 6.85119 12.5402 8.74001C12.5402 10.6288 11.009 12.16 9.12021 12.16C7.23138 12.16 5.7002 10.6288 5.7002 8.74001ZM13.6802 7.60001C13.6802 7.18027 14.0204 6.84001 14.4402 6.84001H31.1602C31.5799 6.84001 31.9202 7.18027 31.9202 7.60001C31.9202 8.01972 31.5799 8.36001 31.1602 8.36001H14.4402C14.0204 8.36001 13.6802 8.01972 13.6802 7.60001ZM13.6802 10.64C13.6802 10.2203 14.0204 9.88001 14.4402 9.88001H21.6602C22.0799 9.88001 22.4202 10.2203 22.4202 10.64C22.4202 11.0597 22.0799 11.4 21.6602 11.4H14.4402C14.0204 11.4 13.6802 11.0597 13.6802 10.64ZM23.5602 10.64C23.5602 10.2203 23.9004 9.88001 24.3202 9.88001H26.6002C27.0199 9.88001 27.3602 10.2203 27.3602 10.64C27.3602 11.0597 27.0199 11.4 26.6002 11.4H24.3202C23.9004 11.4 23.5602 11.0597 23.5602 10.64ZM9.12021 17.1C8.07083 17.1 7.2202 17.9506 7.2202 19C7.2202 20.0493 8.07083 20.9 9.12021 20.9C10.1695 20.9 11.0202 20.0493 11.0202 19C11.0202 17.9506 10.1695 17.1 9.12021 17.1ZM5.7002 19C5.7002 17.1112 7.23138 15.58 9.12021 15.58C11.009 15.58 12.5402 17.1112 12.5402 19C12.5402 20.8888 11.009 22.42 9.12021 22.42C7.23138 22.42 5.7002 20.8888 5.7002 19ZM13.6802 17.48C13.6802 17.0603 14.0204 16.72 14.4402 16.72H31.1602C31.5799 16.72 31.9202 17.0603 31.9202 17.48C31.9202 17.8997 31.5799 18.24 31.1602 18.24H14.4402C14.0204 18.24 13.6802 17.8997 13.6802 17.48ZM13.6802 20.9C13.6802 20.4803 14.0204 20.14 14.4402 20.14H19.7602C20.1799 20.14 20.5202 20.4803 20.5202 20.9C20.5202 21.3197 20.1799 21.66 19.7602 21.66H14.4402C14.0204 21.66 13.6802 21.3197 13.6802 20.9ZM22.0402 20.9C22.0402 20.4803 22.3804 20.14 22.8002 20.14H26.6002C27.0199 20.14 27.3602 20.4803 27.3602 20.9C27.3602 21.3197 27.0199 21.66 26.6002 21.66H22.8002C22.3804 21.66 22.0402 21.3197 22.0402 20.9ZM9.12021 27.36C8.07083 27.36 7.2202 28.2106 7.2202 29.26C7.2202 30.3093 8.07083 31.16 9.12021 31.16C10.1695 31.16 11.0202 30.3093 11.0202 29.26C11.0202 28.2106 10.1695 27.36 9.12021 27.36ZM5.7002 29.26C5.7002 27.3712 7.23138 25.84 9.12021 25.84C11.009 25.84 12.5402 27.3712 12.5402 29.26C12.5402 31.1488 11.009 32.68 9.12021 32.68C7.23138 32.68 5.7002 31.1488 5.7002 29.26ZM13.6802 27.36C13.6802 26.9403 14.0204 26.6 14.4402 26.6H31.1602C31.5799 26.6 31.9202 26.9403 31.9202 27.36C31.9202 27.7797 31.5799 28.12 31.1602 28.12H14.4402C14.0204 28.12 13.6802 27.7797 13.6802 27.36ZM13.6802 30.78C13.6802 30.3603 14.0204 30.02 14.4402 30.02H17.4802C17.8999 30.02 18.2402 30.3603 18.2402 30.78C18.2402 31.1997 17.8999 31.54 17.4802 31.54H14.4402C14.0204 31.54 13.6802 31.1997 13.6802 30.78ZM19.0002 30.78C19.0002 30.3603 19.3404 30.02 19.7602 30.02H26.6002C27.0199 30.02 27.3602 30.3603 27.3602 30.78C27.3602 31.1997 27.0199 31.54 26.6002 31.54H19.7602C19.3404 31.54 19.0002 31.1997 19.0002 30.78Z" fill="#EC8C08"/>
</svg>
