<svg width="32" height="32" viewBox="0 0 32 32" fill="none" xmlns="http://www.w3.org/2000/svg">
<path d="M23.3892 19.9136L18.9508 15.472L25.226 9.19677L27.146 8.36157C27.2381 8.3209 27.3152 8.25271 27.3668 8.16637L29.5812 4.51197C29.6359 4.42011 29.6584 4.31261 29.6451 4.20652C29.6317 4.10044 29.5834 4.00184 29.5076 3.92637L27.8148 2.23997C27.7394 2.16423 27.6408 2.11586 27.5347 2.10253C27.4286 2.0892 27.3211 2.11167 27.2292 2.16637L23.5748 4.35837C23.4886 4.40916 23.4212 4.48667 23.3828 4.57917L22.538 6.49917L16.2596 12.8L12.0996 8.63997C12.4633 7.61801 12.5246 6.5129 12.2762 5.457C12.0278 4.40109 11.4803 3.43918 10.6992 2.68648C9.91817 1.93379 8.93667 1.42222 7.87231 1.21305C6.80794 1.00389 5.70585 1.10601 4.69804 1.50717C4.62387 1.5363 4.55812 1.58344 4.50672 1.64434C4.45533 1.70523 4.4199 1.77796 4.40364 1.85597C4.38786 1.9342 4.39158 2.01511 4.41446 2.09156C4.43734 2.16802 4.47868 2.23767 4.53484 2.29437L7.53964 5.29917L5.29964 7.53917L2.29484 4.53437C2.23813 4.47822 2.16848 4.43688 2.09203 4.41399C2.01557 4.39111 1.93467 4.3874 1.85644 4.40317C1.77843 4.41943 1.7057 4.45486 1.6448 4.50626C1.58391 4.55766 1.53677 4.6234 1.50764 4.69757C1.11378 5.70184 1.0161 6.79797 1.22618 7.85606C1.43626 8.91414 1.9453 9.88981 2.69294 10.6674C3.44059 11.4451 4.39552 11.992 5.44453 12.2435C6.49355 12.495 7.59267 12.4405 8.61164 12.0864L12.1604 15.6256L11.2964 16.48C11.0735 16.2588 10.7721 16.1346 10.458 16.1346C10.144 16.1346 9.8426 16.2588 9.61964 16.48L2.06444 24C1.78946 24.2741 1.57129 24.5997 1.42242 24.9583C1.27356 25.3169 1.19693 25.7013 1.19693 26.0896C1.19693 26.4778 1.27356 26.8623 1.42242 27.2208C1.57129 27.5794 1.78946 27.9051 2.06444 28.1792L3.54924 29.664C4.10406 30.217 4.85548 30.5275 5.63884 30.5275C6.42219 30.5275 7.17361 30.217 7.72844 29.664L15.2676 22.128C15.4888 21.905 15.613 21.6037 15.613 21.2896C15.613 20.9755 15.4888 20.6741 15.2676 20.4512H15.2516L16.106 19.5968L19.914 23.4048C19.5614 24.4236 19.5079 25.5222 19.7599 26.5705C20.0119 27.6188 20.5588 28.573 21.3361 29.3203C22.1133 30.0675 23.0882 30.5766 24.1456 30.7872C25.203 30.9978 26.2986 30.9012 27.3028 30.5088C27.377 30.4796 27.4428 30.4325 27.4942 30.3716C27.5455 30.3107 27.581 30.238 27.5972 30.16C27.613 30.0817 27.6093 30.0008 27.5864 29.9244C27.5635 29.8479 27.5222 29.7783 27.466 29.7216L24.4612 26.7168L26.7012 24.4768L29.706 27.4816C29.7627 27.5377 29.8324 27.5791 29.9088 27.6019C29.9853 27.6248 30.0662 27.6285 30.1444 27.6128C30.2224 27.5965 30.2952 27.5611 30.3561 27.5097C30.417 27.4583 30.4641 27.3925 30.4932 27.3184C30.8871 26.3141 30.9848 25.218 30.7747 24.1599C30.5646 23.1018 30.0556 22.1261 29.3079 21.3485C28.5603 20.5709 27.6054 20.0239 26.5563 19.7724C25.5073 19.5209 24.4082 19.5755 23.3892 19.9296V19.9136ZM24.1988 5.11997L27.3988 3.19997L28.5604 4.36157L26.6404 7.56157L25.0596 8.22397L23.5108 6.67197L24.1988 5.11997ZM22.938 7.47517L24.2724 8.80957L15.9172 17.1488L14.5828 15.8144L22.938 7.47517ZM9.06924 11.2C8.97891 11.1105 8.85716 11.06 8.73004 11.0592C8.66727 11.0596 8.60524 11.0726 8.54764 11.0976C7.75807 11.423 6.89457 11.5264 6.05049 11.3966C5.20641 11.2668 4.41387 10.9088 3.75854 10.3612C3.10321 9.8136 2.61003 9.09729 2.33231 8.28971C2.05459 7.48213 2.0029 6.614 2.18284 5.77917L4.96044 8.55677C5.00478 8.60166 5.0576 8.63731 5.11583 8.66163C5.17406 8.68596 5.23653 8.69849 5.29964 8.69849C5.36274 8.69849 5.42522 8.68596 5.48344 8.66163C5.54167 8.63731 5.59449 8.60166 5.63884 8.55677L8.56044 5.63837C8.64879 5.54757 8.69823 5.42587 8.69823 5.29917C8.69823 5.17247 8.64879 5.05078 8.56044 4.95997L5.77964 2.18237C6.61376 2.00413 7.48072 2.05716 8.2869 2.33573C9.09309 2.6143 9.80785 3.10782 10.354 3.76299C10.9001 4.41817 11.2569 5.2101 11.3858 6.05326C11.5147 6.89642 11.4107 7.75877 11.0852 8.54717C11.051 8.63581 11.0437 8.73256 11.0642 8.82534C11.0847 8.91811 11.1321 9.00278 11.2004 9.06877L15.5812 13.4624L13.9044 15.136L13.6132 14.8448C13.5227 14.7547 13.4002 14.7041 13.2724 14.7041C13.1447 14.7041 13.0222 14.7547 12.9316 14.8448L12.8292 14.9472L9.06924 11.2ZM14.5892 21.44L7.04044 28.9888C6.66561 29.362 6.15819 29.5716 5.62924 29.5716C5.10028 29.5716 4.59286 29.362 4.21804 28.9888L2.74284 27.52C2.55736 27.3351 2.4102 27.1154 2.30978 26.8735C2.20937 26.6316 2.15768 26.3723 2.15768 26.1104C2.15768 25.8485 2.20937 25.5891 2.30978 25.3473C2.4102 25.1054 2.55736 24.8857 2.74284 24.7008L10.282 17.1424C10.325 17.1009 10.3823 17.0778 10.442 17.0778C10.5017 17.0778 10.5591 17.1009 10.602 17.1424L10.9572 17.4976L14.234 20.7744L14.5892 21.12C14.63 21.1633 14.6526 21.2205 14.6526 21.28C14.6526 21.3394 14.63 21.3966 14.5892 21.44ZM14.5732 19.7472L11.9748 17.1488L13.2548 15.8688L15.562 18.1728L15.8532 18.4672L14.5732 19.7472ZM29.818 26.2112L27.0404 23.4432C26.9961 23.3983 26.9433 23.3626 26.885 23.3383C26.8268 23.314 26.7643 23.3015 26.7012 23.3015C26.6381 23.3015 26.5757 23.314 26.5174 23.3383C26.4592 23.3626 26.4064 23.3983 26.362 23.4432L23.4404 26.3616C23.3521 26.4524 23.3026 26.5741 23.3026 26.7008C23.3026 26.8275 23.3521 26.9492 23.4404 27.04L26.2212 29.8176C25.3871 29.9958 24.5201 29.9428 23.714 29.6642C22.9078 29.3856 22.193 28.8921 21.6469 28.2369C21.1007 27.5818 20.744 26.7898 20.6151 25.9467C20.4862 25.1035 20.5901 24.2412 20.9156 23.4528C20.9498 23.3641 20.9572 23.2674 20.9367 23.1746C20.9162 23.0818 20.8688 22.9972 20.8004 22.9312L16.7844 18.9024L16.8868 18.8C16.9317 18.7556 16.9674 18.7028 16.9917 18.6446C17.016 18.5864 17.0286 18.5239 17.0286 18.4608C17.0286 18.3977 17.016 18.3352 16.9917 18.277C16.9674 18.2187 16.9317 18.1659 16.8868 18.1216L16.5956 17.8272L18.2692 16.1536L22.9316 20.8C22.9986 20.8669 23.084 20.9124 23.1768 20.9306C23.2697 20.9488 23.366 20.939 23.4532 20.9024C24.2428 20.577 25.1063 20.4735 25.9504 20.6033C26.7945 20.7331 27.587 21.0912 28.2423 21.6388C28.8977 22.1863 29.3908 22.9027 29.6686 23.7102C29.9463 24.5178 29.998 25.3859 29.818 26.2208V26.2112ZM11.0244 19.6832L4.44204 26.2656C4.35191 26.3553 4.23003 26.4059 4.10284 26.4064C4.01052 26.4039 3.92087 26.3749 3.84462 26.3229C3.76838 26.2708 3.70878 26.1978 3.67297 26.1126C3.63717 26.0275 3.62668 25.9339 3.64276 25.8429C3.65884 25.752 3.70081 25.6676 3.76364 25.6L10.346 19.0048C10.437 18.92 10.5574 18.8738 10.6817 18.876C10.8061 18.8782 10.9247 18.9286 11.0127 19.0165C11.1006 19.1045 11.151 19.2231 11.1532 19.3475C11.1554 19.4718 11.1092 19.5922 11.0244 19.6832ZM12.7268 20.7072C12.7717 20.7515 12.8074 20.8043 12.8317 20.8626C12.856 20.9208 12.8686 20.9833 12.8686 21.0464C12.8686 21.1095 12.856 21.172 12.8317 21.2302C12.8074 21.2884 12.7717 21.3412 12.7268 21.3856L6.14444 27.968C6.05444 28.0579 5.93244 28.1083 5.80524 28.1083C5.67804 28.1083 5.55604 28.0579 5.46604 27.968C5.42114 27.9236 5.3855 27.8708 5.36117 27.8126C5.33685 27.7544 5.32432 27.6919 5.32432 27.6288C5.32432 27.5657 5.33685 27.5032 5.36117 27.445C5.3855 27.3867 5.42114 27.3339 5.46604 27.2896L12.0484 20.7072C12.0928 20.6623 12.1456 20.6266 12.2038 20.6023C12.2621 20.578 12.3245 20.5655 12.3876 20.5655C12.4507 20.5655 12.5132 20.578 12.5714 20.6023C12.6297 20.6266 12.6825 20.6623 12.7268 20.7072Z" fill="#EC8C08"/>
</svg>
