<svg width="37" height="37" viewBox="0 0 37 37" fill="none" xmlns="http://www.w3.org/2000/svg">
<path d="M14.936 18.5078L28.7776 4.66561C29.1587 4.28538 29.3684 3.77701 29.3684 3.23494C29.3684 2.69258 29.1587 2.1845 28.7776 1.80367L27.5647 0.591398C27.1842 0.209967 26.6755 0 26.1334 0C25.5914 0 25.0833 0.209967 24.7025 0.591398L8.22183 17.0717C7.83949 17.4538 7.63013 17.9643 7.63163 18.5069C7.63013 19.052 7.83919 19.5619 8.22183 19.9442L24.6871 36.4086C25.068 36.79 25.576 37 26.1184 37C26.6605 37 27.1685 36.79 27.5497 36.4086L28.7622 35.1963C29.5513 34.4073 29.5513 33.1228 28.7622 32.3341L14.936 18.5078Z" fill="white"/>
</svg>
