<svg width="17" height="16" viewBox="0 0 17 16" fill="none" xmlns="http://www.w3.org/2000/svg">
<g id="black-star-silhouette 1" clip-path="url(#clip0_19_205)">
<g id="Group">
<path id="Vector" d="M8.33518 0.641821C8.37578 0.559536 8.43859 0.490251 8.51651 0.441804C8.59443 0.393357 8.68436 0.367679 8.77611 0.367676C8.86787 0.367672 8.95779 0.393343 9.03572 0.441785C9.11364 0.490227 9.17646 0.559506 9.21706 0.641789L11.135 4.52733C11.2238 4.70732 11.3551 4.86301 11.5175 4.98098C11.6799 5.09896 11.8685 5.17568 12.0671 5.20454L16.3553 5.8279C16.4461 5.8411 16.5314 5.87945 16.6016 5.93859C16.6717 5.99773 16.7239 6.07532 16.7523 6.16258C16.7806 6.24984 16.784 6.34329 16.762 6.43236C16.74 6.52144 16.6935 6.60258 16.6279 6.66664L13.5252 9.69143C13.3814 9.83154 13.2739 10.0045 13.2119 10.1954C13.1499 10.3863 13.1352 10.5894 13.1691 10.7872L13.9012 15.0574C13.9167 15.1478 13.9066 15.2408 13.872 15.3258C13.8375 15.4107 13.7798 15.4843 13.7055 15.5382C13.6313 15.5922 13.5435 15.6243 13.452 15.6309C13.3605 15.6375 13.269 15.6184 13.1878 15.5757L9.35223 13.5596C9.17456 13.4662 8.97684 13.4174 8.77611 13.4174C8.57539 13.4174 8.37768 13.4663 8.20001 13.5597L4.36485 15.5756C4.28364 15.6183 4.19211 15.6374 4.10062 15.6307C4.00912 15.6241 3.9213 15.592 3.84709 15.5381C3.77287 15.4842 3.71522 15.4106 3.68064 15.3256C3.64606 15.2406 3.63594 15.1477 3.65141 15.0573L4.38384 10.7874C4.41779 10.5895 4.40311 10.3864 4.34108 10.1954C4.27905 10.0045 4.17153 9.8315 4.02777 9.69137L0.924878 6.66667C0.859198 6.60262 0.812744 6.52147 0.790769 6.43239C0.768793 6.34332 0.77217 6.24988 0.80052 6.16262C0.828869 6.07537 0.88106 5.99779 0.951193 5.93864C1.02133 5.8795 1.10661 5.84115 1.19739 5.82793L5.48542 5.20461C5.68407 5.17573 5.87271 5.09899 6.03511 4.981C6.1975 4.863 6.32878 4.7073 6.41762 4.5273L8.33518 0.641821Z" fill="#222222"/>
</g>
</g>
<defs>
<clipPath id="clip0_19_205">
<rect width="16" height="16" fill="white" transform="translate(0.776367)"/>
</clipPath>
</defs>
</svg>
