<svg width="47" height="47" viewBox="0 0 47 47" fill="none" xmlns="http://www.w3.org/2000/svg">
<path d="M23.2507 0.250366C10.411 0.250366 0 10.6593 0 23.5C0 36.3407 10.41 46.7497 23.2507 46.7497C36.0924 46.7497 46.5013 36.3407 46.5013 23.5C46.5013 10.6593 36.0924 0.250366 23.2507 0.250366ZM23.2507 7.20228C25.2903 7.20215 27.2464 8.01224 28.6887 9.45436C30.131 10.8965 30.9414 12.8525 30.9415 14.8921C30.9416 16.9317 30.1315 18.8878 28.6894 20.3301C27.2473 21.7724 25.2913 22.5828 23.2517 22.5829C21.2121 22.583 19.256 21.7729 17.8137 20.3308C16.3714 18.8887 15.561 16.9327 15.5609 14.8931C15.5607 12.8535 16.3708 10.8974 17.813 9.45508C19.2551 8.01277 21.2111 7.20242 23.2507 7.20228ZM23.2456 40.671C19.1713 40.6755 15.2299 39.2221 12.1339 36.5735C11.7736 36.2661 11.4843 35.8842 11.2858 35.4542C11.0872 35.0242 10.9843 34.5562 10.984 34.0826C10.984 29.7758 14.4696 26.329 18.7774 26.329H27.726C32.0348 26.329 35.5072 29.7758 35.5072 34.0826C35.5075 34.5561 35.4049 35.024 35.2065 35.4539C35.0081 35.8838 34.7187 36.2655 34.3582 36.5725C31.2624 39.2221 27.3204 40.676 23.2456 40.671Z" fill="#222222"/>
</svg>
